<svg width="605" height="423" viewBox="0 0 605 423" fill="none" xmlns="http://www.w3.org/2000/svg">
<path d="M466.019 422.12C503.142 422.12 538.043 407.664 564.293 381.414C590.544 355.164 605 320.263 605 283.14C605 264.052 601.835 245.998 595.592 229.48C589.147 212.428 579.578 197.429 567.152 184.9C540.716 158.246 502.615 144.158 456.969 144.158C456.62 144.158 456.355 144.138 456.163 144.113C454.778 140.348 456.22 124.196 472.926 97.2807C490.44 69.0639 516.895 41.9432 545.506 22.8738C550.008 19.8732 552.014 14.2801 550.447 9.10241C548.88 3.92477 544.108 0.384048 538.698 0.384048C515.057 0.384048 462.45 16.3632 414.421 60.3854C374.557 96.9234 327.038 163.659 327.038 274.089C327.038 315.832 341.438 353.766 367.584 380.905C393.192 407.484 428.15 422.12 466.019 422.12Z" fill="#D9C5ED"/>
<path d="M41.2603 380.906C66.8674 407.484 101.825 422.12 139.694 422.12C176.817 422.12 211.719 407.664 237.969 381.414C264.219 355.164 278.676 320.263 278.676 283.14C278.676 264.052 275.51 245.998 269.267 229.48C262.822 212.428 253.254 197.429 240.828 184.9C214.391 158.246 176.29 144.158 130.644 144.158C130.295 144.158 130.03 144.138 129.838 144.113C128.453 140.348 129.896 124.196 146.602 97.2807C164.116 69.0633 190.57 41.9432 219.182 22.8738C223.683 19.8732 225.69 14.2801 224.123 9.10241C222.555 3.92477 217.783 0.384048 212.374 0.384048C188.732 0.384048 136.125 16.3632 88.0966 60.3854C48.2326 96.9234 0.71317 163.659 0.71317 274.089C0.713784 315.833 15.1137 353.767 41.2603 380.906Z" fill="#D9C5ED"/>
</svg>
