<svg width="605" height="423" viewBox="0 0 605 423" fill="none" xmlns="http://www.w3.org/2000/svg">
<path d="M139.694 0.384033C102.571 0.384033 67.6702 14.8404 41.4199 41.0901C15.1695 67.3404 0.713135 102.242 0.713135 139.365C0.713135 158.452 3.8783 176.506 10.1214 193.024C16.5665 210.077 26.1349 225.076 38.561 237.604C64.9973 264.258 103.099 278.346 148.744 278.346C149.093 278.346 149.358 278.367 149.551 278.391C150.935 282.157 149.493 298.309 132.787 325.224C115.273 353.441 88.8183 380.561 60.2069 399.631C55.7056 402.631 53.6986 408.224 55.2662 413.402C56.8331 418.58 61.605 422.12 67.0147 422.12C90.6565 422.12 143.263 406.141 191.292 362.119C231.156 325.581 278.676 258.846 278.676 148.416C278.676 106.672 264.276 68.738 238.129 41.5995C212.521 15.0209 177.563 0.384033 139.694 0.384033Z" fill="#D9C5ED"/>
<path d="M564.453 41.5989C538.846 15.0209 503.888 0.384033 466.019 0.384033C428.896 0.384033 393.994 14.8404 367.744 41.0901C341.494 67.3404 327.038 102.242 327.038 139.365C327.038 158.452 330.203 176.506 336.446 193.024C342.891 210.077 352.459 225.076 364.885 237.604C391.322 264.258 429.423 278.346 475.069 278.346C475.418 278.346 475.683 278.367 475.875 278.391C477.26 282.157 475.817 298.309 459.112 325.224C441.597 353.441 415.143 380.561 386.531 399.631C382.03 402.631 380.023 408.224 381.591 413.402C383.158 418.58 387.93 422.12 393.339 422.12C416.981 422.12 469.588 406.141 517.617 362.119C557.481 325.581 605 258.846 605 148.416C604.999 106.672 590.599 68.7374 564.453 41.5989Z" fill="#D9C5ED"/>
</svg>
